<?xml version="1.0" encoding="utf-8"?>
<!-- Generator: Adobe Illustrator 23.1.0, SVG Export Plug-In . SVG Version: 6.00 Build 0)  -->
<svg version="1.1" id="Camada_1" xmlns="http://www.w3.org/2000/svg" xmlns:xlink="http://www.w3.org/1999/xlink" x="0px" y="0px"
	 viewBox="0 0 480 480" style="enable-background:new 0 0 480 480;" xml:space="preserve">
<path d="M240,453c117.6,0,213-95.4,213-213S357.6,27,240,27S27,122.4,27,240C27.1,357.6,122.4,452.9,240,453z M73.5,348.4l18.5-10.7
	c31.4,47.7,83.9,77.3,141,79.7v21.3C168.2,436.3,108.7,402.6,73.5,348.4z M247.1,255.9l128.7,74.7c-28.9,43.3-76.7,70.3-128.7,72.6
	V255.9z M254.2,243.6L386,167.1c24,47.8,22.9,104.4-2.8,151.3L254.2,243.6z M247.1,231.2V76.9c54.2,2.4,103.7,31.5,132.1,77.8
	L247.1,231.2z M232.9,231.2l-132.1-76.6c28.4-46.2,77.9-75.4,132.1-77.8V231.2z M225.8,243.6l-129,74.8C71,271.5,70,214.9,94,167.1
	L225.8,243.6z M232.9,255.9v147.2c-52-2.3-99.8-29.2-128.7-72.6L232.9,255.9z M247.1,438.6v-21.3c57.1-2.3,109.6-32,141-79.7
	l18.5,10.7C371.3,402.6,311.8,436.3,247.1,438.6z M413.9,336.2l-18.4-10.6c28.3-51.3,29.4-113.3,2.8-165.6l18.5-10.7
	C447.1,208.1,446.1,278.3,413.9,336.2L413.9,336.2z M409.9,136.8l-18.5,10.7c-30.9-50.6-85.1-82.4-144.3-84.8V41.4
	C314,43.8,375.1,79.7,409.9,136.8z M232.9,41.4v21.3c-59.3,2.4-113.4,34.2-144.3,84.8l-18.5-10.7C104.9,79.7,166,43.8,232.9,41.4z
	 M63.2,149.2l18.5,10.7c-26.5,52.3-25.5,114.3,2.8,165.6l-18.4,10.6C34,278.2,32.9,208.1,63.2,149.2L63.2,149.2z"/>
<path d="M218.7,112.2c0,7.8-6.4,14.2-14.2,14.2s-14.2-6.4-14.2-14.2S196.7,98,204.5,98S218.7,104.4,218.7,112.2z"/>
<path d="M147.7,161.9c11.8,0,21.3-9.5,21.3-21.3h-14.2c0,3.9-3.2,7.1-7.1,7.1s-7.1-3.2-7.1-7.1h-14.2
	C126.4,152.4,135.9,161.9,147.7,161.9z"/>
<path d="M204.5,154.8c0,7.8-6.4,14.2-14.2,14.2c-7.8,0-14.2-6.4-14.2-14.2c0-7.8,6.4-14.2,14.2-14.2
	C198.1,140.6,204.5,147,204.5,154.8z"/>
<path d="M204.5,183.2h14.2v14.2h-14.2V183.2z"/>
<path d="M154.8,112.2H169v14.2h-14.2V112.2z"/>
<path d="M282.6,112.2c0,7.8-6.4,14.2-14.2,14.2s-14.2-6.4-14.2-14.2S260.6,98,268.4,98S282.6,104.4,282.6,112.2z"/>
<path d="M296.8,140.6v14.2c3.9,0,7.1,3.2,7.1,7.1c0,3.9-3.2,7.1-7.1,7.1v14.2c11.8,0,21.3-9.5,21.3-21.3
	C318.1,150.1,308.6,140.6,296.8,140.6z"/>
<path d="M339.4,126.4c0,7.8-6.4,14.2-14.2,14.2c-7.8,0-14.2-6.4-14.2-14.2s6.4-14.2,14.2-14.2C333,112.2,339.4,118.6,339.4,126.4z"
	/>
<path d="M268.4,147.7h14.2v14.2h-14.2V147.7z"/>
<path d="M261.3,183.2h14.2v14.2h-14.2V183.2z"/>
<path d="M382,275.5c0,7.8-6.4,14.2-14.2,14.2c-7.8,0-14.2-6.4-14.2-14.2s6.4-14.2,14.2-14.2C375.6,261.3,382,267.7,382,275.5z"/>
<path d="M367.8,211.6c3.9,0,7.1,3.2,7.1,7.1h14.2c0-11.8-9.5-21.3-21.3-21.3c-11.8,0-21.3,9.5-21.3,21.3h14.2
	C360.7,214.8,363.9,211.6,367.8,211.6z"/>
<path d="M325.2,240c0,7.8-6.4,14.2-14.2,14.2s-14.2-6.4-14.2-14.2s6.4-14.2,14.2-14.2S325.2,232.2,325.2,240z"/>
<path d="M332.3,247.1h14.2v14.2h-14.2V247.1z"/>
<path d="M367.8,232.9H382v14.2h-14.2V232.9z"/>
<path d="M289.7,367.8c0,7.8-6.4,14.2-14.2,14.2s-14.2-6.4-14.2-14.2c0-7.8,6.4-14.2,14.2-14.2S289.7,360,289.7,367.8z"/>
<path d="M332.3,318.1c-11.8,0-21.3,9.5-21.3,21.3h14.2c0-3.9,3.2-7.1,7.1-7.1c3.9,0,7.1,3.2,7.1,7.1h14.2
	C353.6,327.6,344.1,318.1,332.3,318.1z"/>
<path d="M296.8,318.1c0,7.8-6.4,14.2-14.2,14.2s-14.2-6.4-14.2-14.2s6.4-14.2,14.2-14.2S296.8,310.3,296.8,318.1z"/>
<path d="M254.2,275.5h14.2v14.2h-14.2V275.5z"/>
<path d="M311,353.6h14.2v14.2H311V353.6z"/>
<path d="M225.8,367.8c0,7.8-6.4,14.2-14.2,14.2c-7.8,0-14.2-6.4-14.2-14.2c0-7.8,6.4-14.2,14.2-14.2
	C219.4,353.6,225.8,360,225.8,367.8z"/>
<path d="M183.2,339.4v-14.2c-3.9,0-7.1-3.2-7.1-7.1c0-3.9,3.2-7.1,7.1-7.1v-14.2c-11.8,0-21.3,9.5-21.3,21.3
	S171.4,339.4,183.2,339.4z"/>
<path d="M169,353.6c0,7.8-6.4,14.2-14.2,14.2c-7.8,0-14.2-6.4-14.2-14.2s6.4-14.2,14.2-14.2C162.6,339.4,169,345.8,169,353.6z"/>
<path d="M204.5,325.2h14.2v14.2h-14.2V325.2z"/>
<path d="M197.4,289.7h14.2v14.2h-14.2V289.7z"/>
<path d="M126.4,204.5c0,7.8-6.4,14.2-14.2,14.2S98,212.3,98,204.5s6.4-14.2,14.2-14.2S126.4,196.7,126.4,204.5z"/>
<path d="M112.2,275.5c-3.9,0-7.1-3.2-7.1-7.1H90.9c0,11.8,9.5,21.3,21.3,21.3s21.3-9.5,21.3-21.3h-14.2
	C119.3,272.3,116.1,275.5,112.2,275.5z"/>
<path d="M161.9,240c0,7.8-6.4,14.2-14.2,14.2c-7.8,0-14.2-6.4-14.2-14.2s6.4-14.2,14.2-14.2C155.5,225.8,161.9,232.2,161.9,240z"/>
<path d="M176.1,232.9h14.2v14.2h-14.2V232.9z"/>
<path d="M98,240h14.2v14.2H98V240z"/>
</svg>
