<?xml version="1.0" encoding="utf-8"?>
<!-- Generator: Adobe Illustrator 23.1.0, SVG Export Plug-In . SVG Version: 6.00 Build 0)  -->
<svg version="1.1" id="Layer_1" xmlns="http://www.w3.org/2000/svg" xmlns:xlink="http://www.w3.org/1999/xlink" x="0px" y="0px"
	 viewBox="0 0 512 512" style="enable-background:new 0 0 512 512;" xml:space="preserve">
<path d="M178.3,307.5c6.8-6.8,6.8-17.9,0-24.7c-6.8-6.8-17.9-6.8-24.7,0s-6.8,17.9,0,24.7c3.3,3.3,7.7,5.1,12.3,5.1
	C170.6,312.6,175,310.8,178.3,307.5z M161.8,291c2.2-2.3,5.9-2.4,8.2-0.2c2.3,2.2,2.4,5.9,0.2,8.2c-0.1,0.1-0.1,0.1-0.2,0.2
	c-2.3,2.2-5.9,2.2-8.2,0C159.6,297,159.6,293.3,161.8,291L161.8,291z"/>
<path d="M279.4,332.8c-8.6-8.6-22.6-8.6-31.2,0c-8.6,8.6-8.6,22.6,0,31.2c8.6,8.6,22.6,8.6,31.2,0c4.1-4.1,6.5-9.7,6.5-15.6
	C285.9,342.6,283.6,337,279.4,332.8z M271.2,355.8c-4.1,3.9-10.6,3.9-14.8,0c-4.1-4.1-4.1-10.7,0-14.8c4.1-4.1,10.7-4.1,14.8,0
	C275.3,345.1,275.3,351.7,271.2,355.8z"/>
<path d="M251.1,216.7c11.2,0,20.2-9,20.2-20.2c0-11.2-9-20.2-20.2-20.2c-11.2,0-20.2,9-20.2,20.2c0,5.4,2.1,10.5,5.9,14.3
	C240.6,214.5,245.7,216.7,251.1,216.7z M245,190.4c3.4-3.4,8.8-3.3,12.1,0c3.4,3.4,3.3,8.8,0,12.1c-3.4,3.4-8.8,3.3-12.1,0
	c-1.6-1.6-2.5-3.8-2.5-6.1C242.5,194.2,243.4,192,245,190.4L245,190.4z"/>
<path d="M368.8,226.6c-10.2-10.2-26.6-10.1-36.8,0c-10.2,10.2-10.1,26.6,0,36.8c10.2,10.2,26.6,10.1,36.8,0
	c4.9-4.9,7.6-11.5,7.6-18.4C376.4,238.1,373.7,231.5,368.8,226.6z M360.6,255.2c-5.6,5.6-14.7,5.6-20.4,0s-5.6-14.7,0-20.4
	c5.6-5.6,14.7-5.6,20.4,0C366.2,240.5,366.2,249.6,360.6,255.2C360.6,255.2,360.6,255.2,360.6,255.2z"/>
<path d="M264,312.9c2.7,1.8,6.3,1,8-1.7c1.8-2.7,1-6.3-1.7-8c-19.5-12.7-37.3-1.6-44,6.1c-2.1,2.4-1.9,6.1,0.5,8.2s6.1,1.9,8.2-0.5
	C236.4,315.5,248.5,302.7,264,312.9z"/>
<path d="M281.7,170.8c6.7,4.8,8.8,13.8,4.8,21c-1.6,2.8-0.5,6.3,2.3,7.9c2.8,1.6,6.3,0.5,7.9-2.3c0,0,0.1-0.1,0.1-0.1
	c6.8-12.3,3.3-27.7-8.2-35.9c-2.6-1.9-6.2-1.3-8.1,1.3C278.6,165.3,279.1,168.9,281.7,170.8L281.7,170.8z"/>
<path d="M355,289.2c-7,4.3-16.1,2.7-21.2-3.8c-2-2.5-5.7-2.8-8.2-0.8c-2.4,2-2.8,5.6-0.9,8.1c5,6.6,12.8,10.5,21.1,10.5
	c5.3,0,10.5-1.4,15.1-4c2.7-1.8,3.4-5.4,1.6-8.1C360.9,288.6,357.6,287.8,355,289.2L355,289.2z"/>
<path d="M363.7,159.7c-1.8-2-3.6-3.9-5.4-5.7c0,0-0.1-0.1-0.1-0.2c0,0-0.1-0.1-0.2-0.1c-20.8-20.9-47.6-34.9-76.7-40
	c-7.4-1.3-15.1,0.7-20.8,5.6c-5.7,4.8-9,11.9-9,19.3c0,2.2-1.8,3.9-3.9,3.9c-0.1,0-0.1,0-0.2,0c-2.2-0.3-3.8-2.3-3.7-4.5v-22
	c0-4.3-1.8-8.3-4.8-11.3c-3.1-3-7.3-4.5-11.5-4.3c-8.4,0.6-14.9,7.7-14.7,16.1v5.3c0,0.3,0,0.6,0,0.9c0,0.2,0,0.4,0,0.5v33.1
	c0,1.1-0.4,2.1-1.2,2.9c-0.8,0.7-1.9,1.1-2.9,1.1c-2.2-0.3-3.8-2.3-3.7-4.5v-5.6c0.1-6.6-3.6-12.7-9.4-15.8
	c-5.8-3.2-13-2.8-18.5,0.8c-8,5.3-15.5,11.4-22.3,18.2c-0.2,0.1-0.3,0.2-0.5,0.4c-0.1,0.1-0.2,0.2-0.3,0.3c-3,3-5.8,6.1-8.6,9.3
	c-46,55.4-44.3,136.2,4,189.6c1.5,1.7,3.1,3.3,4.7,4.9c0,0,0.1,0.1,0.1,0.1c0,0,0.1,0,0.1,0.1c27.1,27,63.8,42.2,102.1,42.3h0.3
	c37.6-0.2,73.7-14.9,100.7-41.2c1-0.5,1.8-1.3,2.3-2.3c1.4-1.4,2.8-2.9,4.2-4.4C412.1,297.6,412.3,214.9,363.7,159.7L363.7,159.7z
	 M183,145c2-1.3,4.5-1.4,6.6-0.3c2.1,1.1,3.3,3.2,3.3,5.5v5.6c-0.1,8.4,6.3,15.5,14.7,16.1c8.6,0.5,15.9-6.1,16.4-14.7
	c0-0.3,0-0.5,0-0.8V123c0-0.1,0-0.1,0-0.2s0-0.1,0-0.2v-5.9c-0.1-2.2,1.5-4.2,3.7-4.5c2.2-0.1,4,1.5,4.2,3.7c0,0.1,0,0.1,0,0.2v22
	c-0.2,8.4,6.3,15.5,14.7,16.1c4.3,0.2,8.4-1.3,11.5-4.2c3.1-2.9,4.8-7,4.8-11.3c0-4,1.8-7.8,4.8-10.4c3.2-2.6,7.3-3.7,11.4-3
	c24.9,4.3,47.9,15.7,66.5,32.9L256,247.8l-89.7-89.7C171.5,153.3,177.1,148.9,183,145L183,145z M198.4,233.3
	c-7.4,7.3-19.3,7.3-26.6,0c-7.3-7.4-7.3-19.3,0-26.6c7.4-7.3,19.3-7.3,26.6,0C205.8,214,205.8,225.9,198.4,233.3L198.4,233.3z
	 M153.9,170.9c1.3-1.6,2.8-3.1,4.2-4.6l23.5,23.5c-16.7,1.9-28.7,17.1-26.7,33.8c1.9,16.7,17.1,28.7,33.8,26.7
	c14-1.6,25.1-12.7,26.7-26.7l32.5,32.5l-89.7,89.7c-0.1-0.2-0.3-0.3-0.5-0.5C113.2,296.2,111.6,221.9,153.9,170.9L153.9,170.9z
	 M256.3,388.9H256c-33.2-0.1-65.2-12.5-89.7-34.9l89.7-89.7l89.7,89.7C321.3,376.3,289.4,388.7,256.3,388.9z M354.8,344.8
	c-0.3,0.3-0.6,0.6-0.9,0.9L264.2,256l89.7-89.7c0.4,0.4,0.8,0.8,1.1,1.2C399.7,218.2,399.6,294.2,354.8,344.8L354.8,344.8z"/>
<path d="M383.3,128.7c-70.3-70.3-184.3-70.2-254.6,0.1s-70.2,184.3,0.1,254.6c70.3,70.2,184.2,70.2,254.4,0
	C453.6,313,453.6,199,383.3,128.7z M375.1,375.1c-65.8,65.7-172.4,65.7-238.1-0.1s-65.7-172.4,0.1-238.1c65.7-65.7,172.3-65.7,238,0
	C440.8,202.7,440.8,309.3,375.1,375.1z"/>
</svg>
