<svg id="Capa_1" enable-background="new 0 0 512 512" height="512" viewBox="0 0 512 512" width="512" xmlns="http://www.w3.org/2000/svg"><path d="m437.02 74.98c-48.353-48.351-112.64-74.98-181.02-74.98s-132.667 26.629-181.02 74.98c-48.351 48.353-74.98 112.64-74.98 181.02s26.629 132.667 74.98 181.02c48.353 48.351 112.64 74.98 181.02 74.98s132.667-26.629 181.02-74.98c48.351-48.353 74.98-112.64 74.98-181.02s-26.629-132.667-74.98-181.02zm-5.394 346.04-19.691-19.691c1.512-.916 3.118-1.814 4.763-2.731 5.953-3.319 12.7-7.082 17.232-13.309 4.51-6.197 6.013-13.756 7.339-20.426.94-4.729 1.828-9.194 3.583-12.632 1.717-3.363 4.783-6.665 8.028-10.159 4.658-5.017 9.938-10.702 12.336-18.087 2.351-7.239 1.477-14.538.631-21.596-.577-4.816-1.122-9.366-.514-13.233.577-3.672 2.455-7.732 4.443-12.029 1.931-4.174 4.031-8.724 5.21-13.625h21.887c-1.794 59.065-24.749 114.482-65.247 157.518zm-416.499-157.52h21.887c1.179 4.902 3.278 9.452 5.21 13.626 1.989 4.298 3.867 8.357 4.444 12.029.607 3.866.063 8.415-.515 13.23-.846 7.058-1.721 14.354.629 21.593 2.398 7.385 7.678 13.07 12.335 18.086 3.245 3.495 6.31 6.796 8.027 10.159 1.754 3.438 2.642 7.903 3.582 12.631 1.326 6.67 2.828 14.229 7.338 20.426 4.532 6.227 11.278 9.99 17.23 13.309 1.649.919 3.257 1.819 4.772 2.737l-19.692 19.694c-40.498-43.036-63.453-98.453-65.247-157.52zm65.247-172.52 19.691 19.691c-1.512.916-3.118 1.814-4.763 2.731-5.953 3.319-12.7 7.082-17.232 13.309-4.51 6.197-6.013 13.756-7.339 20.426-.94 4.729-1.828 9.194-3.583 12.632-1.717 3.363-4.783 6.665-8.028 10.159-4.658 5.017-9.938 10.702-12.336 18.087-2.351 7.239-1.477 14.538-.631 21.596.577 4.816 1.122 9.366.514 13.233-.577 3.672-2.455 7.732-4.443 12.029-1.931 4.174-4.031 8.724-5.21 13.625h-21.887c1.794-59.065 24.749-114.482 65.247-157.518zm329.025 35.531c5.049 2.815 9.817 5.475 12.408 9.035 2.568 3.53 3.63 8.87 4.753 14.524 1.098 5.523 2.233 11.235 4.935 16.527 2.666 5.221 6.595 9.453 10.395 13.545 3.952 4.256 7.685 8.276 9.061 12.513 1.33 4.098.686 9.479.002 15.175-.673 5.617-1.369 11.426-.439 17.344.902 5.742 3.315 10.957 5.648 16 1.164 2.516 2.29 4.963 3.159 7.327h-185.215l126.977-126.977c2.698 1.842 5.531 3.434 8.316 4.987zm41.554 177.66c.683 5.698 1.327 11.081-.004 15.179-1.376 4.237-5.109 8.257-9.061 12.514-3.8 4.093-7.73 8.325-10.396 13.545-2.702 5.292-3.837 11.003-4.936 16.528-1.124 5.654-2.186 10.994-4.755 14.524-2.591 3.56-7.36 6.219-12.409 9.035-2.782 1.551-5.612 3.142-8.308 4.982l-82.03-82.03c4.976-3.083 10.835-4.868 17.106-4.868 16.133 0 30 12.022 32.257 27.964.581 4.101 4.373 6.955 8.477 6.375 4.101-.581 6.955-4.376 6.375-8.478-3.297-23.295-23.55-40.862-47.109-40.862-10.417 0-20.056 3.374-27.9 9.074l-34.154-34.153h185.214c-.869 2.364-1.994 4.811-3.158 7.327-2.333 5.043-4.746 10.258-5.648 16-.93 5.917-.234 11.727.439 17.344zm-348.352 81.318c-5.049-2.815-9.817-5.475-12.408-9.035-2.568-3.53-3.63-8.87-4.753-14.524-1.098-5.523-2.233-11.235-4.935-16.527-2.666-5.221-6.595-9.453-10.395-13.545-3.952-4.256-7.685-8.276-9.061-12.513-1.33-4.098-.686-9.479-.002-15.175.673-5.617 1.369-11.426.439-17.344-.902-5.742-3.315-10.957-5.648-16-1.164-2.516-2.29-4.963-3.159-7.327h185.214l-126.976 126.978c-2.698-1.843-5.531-3.435-8.316-4.988zm-41.554-177.66c-.683-5.698-1.327-11.081.004-15.179 1.376-4.237 5.109-8.257 9.061-12.514 3.8-4.093 7.73-8.325 10.396-13.545 2.702-5.292 3.837-11.003 4.936-16.528 1.124-5.654 2.186-10.994 4.755-14.524 2.591-3.56 7.36-6.219 12.409-9.035 2.782-1.551 5.612-3.142 8.308-4.982l18.4 18.4c-5.7 7.845-9.074 17.484-9.074 27.9 0 22.326 15.18 41.397 36.914 46.379.564.129 1.127.191 1.683.191 3.418 0 6.507-2.353 7.304-5.826.925-4.037-1.598-8.061-5.635-8.986-14.876-3.409-25.266-16.469-25.266-31.758 0-6.271 1.785-12.131 4.868-17.106l97.784 97.784h-185.215c.869-2.364 1.994-4.811 3.158-7.327 2.333-5.043 4.746-10.258 5.648-16 .931-5.917.235-11.727-.438-17.344zm187.453 30.065-42.153-42.153c5.861-8.086 9.057-17.857 9.057-27.918 0-26.236-21.345-47.58-47.581-47.58-10.417 0-20.056 3.374-27.901 9.073l-18.399-18.399c1.843-2.698 3.435-5.531 4.987-8.315 2.815-5.049 5.475-9.818 9.035-12.408 3.529-2.569 8.87-3.63 14.523-4.753 5.524-1.098 11.236-2.233 16.528-4.935 5.221-2.665 9.453-6.595 13.545-10.395 4.256-3.952 8.276-7.685 12.513-9.06 4.098-1.331 9.479-.686 15.174-.003 5.617.673 11.424 1.369 17.344.439 5.741-.902 10.956-3.315 15.999-5.649 2.516-1.164 4.963-2.29 7.328-3.159v185.215zm-52.959-52.96-44.824-44.825c4.976-3.082 10.835-4.867 17.107-4.867 17.965 0 32.581 14.615 32.581 32.58-.002 6.079-1.709 12-4.864 17.112zm-19.702 174.759c9.125 0 16.548 7.424 16.548 16.549s-7.423 16.548-16.548 16.548-16.548-7.423-16.548-16.548 7.423-16.549 16.548-16.549zm-31.478 18.553c1.038 16.465 14.756 29.544 31.478 29.544 17.396 0 31.548-14.152 31.548-31.548 0-16.722-13.079-30.44-29.545-31.479l70.657-70.657v185.215c-2.364-.869-4.811-1.994-7.327-3.158-5.043-2.333-10.258-4.746-16-5.649-5.917-.93-11.728-.234-17.345.439-5.698.683-11.08 1.327-15.179-.004-4.237-1.376-8.257-5.109-12.514-9.061-4.093-3.801-8.325-7.73-13.546-10.396-5.292-2.702-11.003-3.837-16.527-4.936-5.654-1.124-10.995-2.186-14.524-4.755-3.56-2.591-6.22-7.36-9.035-12.409-1.551-2.781-3.142-5.612-4.982-8.308zm119.139-104.14 34.154 34.154c-5.7 7.845-9.074 17.484-9.074 27.9 0 26.236 21.345 47.581 47.581 47.581 10.101 0 19.831-3.193 27.914-9.06l26.401 26.401c-1.843 2.698-3.435 5.531-4.987 8.315-2.815 5.049-5.475 9.818-9.035 12.408-3.529 2.569-8.87 3.63-14.523 4.753-5.524 1.098-11.236 2.233-16.528 4.935-5.221 2.665-9.453 6.595-13.545 10.395-4.256 3.952-8.276 7.685-12.513 9.06-4.098 1.331-9.479.686-15.174.003-5.618-.673-11.424-1.369-17.344-.439-5.741.902-10.956 3.315-15.999 5.649-2.516 1.164-4.963 2.29-7.328 3.159zm89.78 89.781c-5.107 3.158-11.016 4.855-17.119 4.855-17.965 0-32.581-14.616-32.581-32.581 0-6.271 1.785-12.131 4.868-17.106zm-25.135-203.565c-9.125 0-16.548-7.423-16.548-16.548s7.423-16.549 16.548-16.549 16.548 7.424 16.548 16.549-7.423 16.548-16.548 16.548zm31.478-18.551c-1.038-16.465-14.756-29.545-31.478-29.545-17.396 0-31.548 14.153-31.548 31.549 0 16.722 13.079 30.44 29.545 31.478l-62.642 62.641v-185.215c2.364.869 4.811 1.995 7.327 3.159 5.043 2.333 10.258 4.747 16 5.649 5.918.93 11.728.233 17.345-.439 5.698-.683 11.08-1.327 15.179.004 4.237 1.376 8.257 5.109 12.514 9.061 4.093 3.801 8.325 7.73 13.546 10.396 5.292 2.702 11.003 3.837 16.527 4.936 5.654 1.124 10.995 2.186 14.524 4.755 3.35 2.438 8.041 1.698 10.478-1.65 2.438-3.35 1.699-8.04-1.65-10.478-6.197-4.51-13.756-6.013-20.426-7.339-4.728-.94-9.194-1.828-12.632-3.583-3.363-1.717-6.665-4.782-10.159-8.028-5.017-4.658-10.702-9.938-18.088-12.336-7.237-2.35-14.536-1.476-21.596-.631-4.816.577-9.366 1.122-13.232.514-3.673-.577-7.732-2.456-12.029-4.444-4.175-1.932-8.724-4.031-13.626-5.21v-21.888c59.068 1.794 114.484 24.748 157.519 65.247zm-111.123-104.757c-4.902 1.179-9.452 3.278-13.626 5.21-4.297 1.988-8.356 3.867-12.029 4.444-3.87.607-8.415.063-13.23-.515-7.058-.846-14.355-1.72-21.592.63-7.386 2.397-13.071 7.677-18.087 12.335-3.495 3.245-6.796 6.31-10.159 8.027-3.437 1.754-7.903 2.642-12.631 3.582-6.669 1.326-14.229 2.828-20.425 7.337-6.228 4.532-9.99 11.278-13.309 17.23-.919 1.649-1.819 3.258-2.737 4.772l-19.694-19.692c43.036-40.499 98.452-63.453 157.519-65.247zm-137.828 374.921c.915 1.512 1.814 3.118 2.731 4.763 3.319 5.952 7.082 12.699 13.309 17.231 6.197 4.51 13.756 6.013 20.426 7.339 4.728.94 9.194 1.828 12.632 3.583 3.363 1.717 6.665 4.782 10.159 8.028 5.017 4.658 10.702 9.938 18.088 12.336 7.238 2.351 14.537 1.477 21.596.631 4.816-.577 9.365-1.122 13.232-.514 3.673.577 7.732 2.456 12.029 4.444 4.175 1.932 8.724 4.031 13.626 5.21v21.887c-59.068-1.794-114.484-24.748-157.519-65.247zm152.828 63.051c4.902-1.179 9.452-3.278 13.626-5.21 4.297-1.988 8.356-3.867 12.029-4.444 3.87-.607 8.415-.063 13.23.515 7.058.846 14.355 1.72 21.592-.63 7.386-2.398 13.071-7.677 18.087-12.335 3.495-3.245 6.796-6.31 10.159-8.028 3.437-1.754 7.903-2.642 12.631-3.582 6.669-1.326 14.229-2.828 20.425-7.337 6.228-4.532 9.99-11.278 13.309-17.23.919-1.649 1.819-3.258 2.737-4.772l19.693 19.693c-43.036 40.499-98.452 63.453-157.519 65.247v-21.887zm211.486-226.486c-1.179-4.902-3.278-9.452-5.21-13.626-1.989-4.298-3.867-8.357-4.444-12.029-.607-3.866-.063-8.415.515-13.23.846-7.058 1.721-14.354-.629-21.593-2.398-7.385-7.678-13.07-12.335-18.086-3.245-3.495-6.31-6.796-8.027-10.159-1.754-3.438-2.642-7.903-3.582-12.631-1.326-6.67-2.828-14.229-7.338-20.426-4.532-6.227-11.278-9.99-17.23-13.309-1.649-.919-3.257-1.819-4.772-2.737l19.693-19.693c40.499 43.036 63.453 98.452 65.247 157.52h-21.888z"/><path d="m118.825 293.709c-1.311-3.93-5.557-6.054-9.487-4.744s-6.053 5.557-4.744 9.487l8.016 24.049c1.048 3.143 3.974 5.13 7.114 5.13.786 0 1.586-.124 2.373-.387 3.93-1.31 6.053-5.557 4.744-9.486z"/><path d="m167.823 288.581h-16.032c-4.142 0-7.5 3.358-7.5 7.5s3.358 7.5 7.5 7.5h16.032c4.142 0 7.5-3.358 7.5-7.5s-3.358-7.5-7.5-7.5z"/><path d="m226.648 357.497c1.464 1.464 3.384 2.196 5.303 2.196s3.839-.732 5.303-2.196c2.929-2.929 2.929-7.678 0-10.606l-8.016-8.017c-2.929-2.929-7.678-2.929-10.606 0-2.929 2.929-2.929 7.678 0 10.606z"/><path d="m406.999 284.71c-1.852-3.705-6.357-5.208-10.062-3.354-3.705 1.853-5.207 6.357-3.354 10.062l8.016 16.032c1.314 2.628 3.962 4.148 6.714 4.148 1.127 0 2.271-.255 3.348-.794 3.705-1.853 5.207-6.357 3.354-10.062z"/><path d="m296.081 415.807h8.016c4.142 0 7.5-3.358 7.5-7.5 0-4.143-3.358-7.5-7.5-7.5h-8.016c-4.142 0-7.5 3.357-7.5 7.5 0 4.141 3.357 7.5 7.5 7.5z"/><path d="m388.92 190.563c1.077.539 2.221.793 3.348.793 2.751 0 5.4-1.52 6.714-4.147l8.016-16.032c1.853-3.705.351-8.21-3.354-10.063-3.704-1.853-8.21-.351-10.062 3.354l-8.016 16.032c-1.852 3.706-.351 8.21 3.354 10.063z"/><path d="m346.89 221.223 8.016 8.016c1.464 1.464 3.384 2.197 5.303 2.197s3.839-.732 5.303-2.197c2.929-2.929 2.929-7.677 0-10.606l-8.016-8.016c-2.929-2.929-7.678-2.929-10.606 0-2.929 2.928-2.929 7.677 0 10.606z"/><path d="m401.599 219.273c1.314 2.628 3.962 4.147 6.714 4.147 1.127 0 2.271-.255 3.348-.793l16.032-8.017c3.705-1.853 5.207-6.357 3.354-10.062s-6.356-5.208-10.062-3.354l-16.032 8.016c-3.705 1.853-5.207 6.358-3.354 10.063z"/><path d="m293.368 82.358c-2.929-2.93-7.678-2.93-10.606 0-2.929 2.929-2.929 7.677 0 10.606l8.016 8.016c1.464 1.465 3.384 2.197 5.303 2.197s3.839-.732 5.303-2.197c2.929-2.929 2.929-7.677 0-10.606z"/><path d="m230.644 92.323c-1.852-3.705-6.357-5.207-10.062-3.354l-16.032 8.016c-3.705 1.853-5.207 6.357-3.354 10.063 1.314 2.628 3.962 4.147 6.714 4.147 1.127 0 2.271-.255 3.348-.793l16.032-8.016c3.705-1.853 5.206-6.358 3.354-10.063z"/><path d="m95.758 191.354c4.142 0 7.5-3.357 7.5-7.5 0-4.142-3.358-7.5-7.5-7.5h-.081c-4.142 0-7.459 3.358-7.459 7.5 0 4.143 3.398 7.5 7.54 7.5z"/><path d="m288.064 176.354h-.08c-4.142 0-7.46 3.358-7.46 7.5 0 4.143 3.398 7.5 7.54 7.5s7.5-3.357 7.5-7.5c0-4.141-3.357-7.5-7.5-7.5z"/><path d="m232.032 128.258h-.08c-4.142 0-7.46 3.358-7.46 7.5 0 4.143 3.398 7.5 7.54 7.5s7.5-3.357 7.5-7.5c0-4.142-3.358-7.5-7.5-7.5z"/><path d="m223.936 431.839c4.142 0 7.5-3.358 7.5-7.5 0-4.143-3.358-7.5-7.5-7.5h-.08c-4.142 0-7.46 3.357-7.46 7.5 0 4.141 3.397 7.5 7.54 7.5z"/><path d="m114.422 229.239c1.464 1.464 3.384 2.197 5.303 2.197s3.839-.732 5.303-2.197c2.929-2.929 2.929-7.677 0-10.606l-8.016-8.016c-2.929-2.929-7.678-2.929-10.606 0-2.929 2.929-2.929 7.678 0 10.606z"/></svg>